<svg version="1.1" id="Layer_1" xmlns="http://www.w3.org/2000/svg" xmlns:xlink="http://www.w3.org/1999/xlink" x="0px" y="0px"
	 viewBox="0 0 512 512" style="enable-background:new 0 0 512 512;" xml:space="preserve">
<path style="fill:#FFE477;" d="M107.457,73.894H68.829v36.971H29.21V73.894H0v364.213h29.21v-33.298h39.619v33.298h372.428v-33.298
	h41.533v33.298H512V73.894h-29.21v36.971h-41.533V73.894H170.15H107.457z M68.829,375.598H29.21v-36.974h39.619V375.598z
	 M68.829,309.414H29.21v-36.973h39.619V309.414z M68.829,243.231H29.21v-36.973h39.619V243.231z M68.829,177.048H29.21v-36.973
	h39.619V177.048z M482.79,140.075v36.973h-41.533v-36.973H482.79z M441.257,243.231v-36.973h41.533v36.973L441.257,243.231
	L441.257,243.231z M482.79,272.441v36.973h-41.533v-36.973H482.79z M441.257,375.598v-36.974h41.533v36.973h-41.533V375.598z"/>
<rect x="96.216" y="100.675" style="fill:#FFF5CC;" width="317.66" height="310.648"/>
<g></g>
	<polygon style="fill:#CCA400;" points="257.822,171.06 282.834,225.893 342.713,232.737 298.292,273.471 310.287,332.534 
		257.822,302.875 205.356,332.534 217.35,273.471 172.929,232.737 232.808,225.893 	"/>
	<g style="opacity:0.22;">
		<rect x="441.256" y="336.625" style="fill:#CCA400;" width="41.533" height="36.977"/>
		<rect x="441.256" y="204.259" style="fill:#CCA400;" width="41.533" height="36.977"/>
		<path style="fill:#CCA400;" d="M482.79,175.05v-36.973h-35.413c-2.04,1.363-4.079,2.721-6.12,4.067v32.906H482.79z"/>
		<path style="fill:#CCA400;" d="M441.257,138.076v4.067c2.04-1.346,4.08-2.706,6.12-4.067H441.257z"/>
		<rect x="29.21" y="336.625" style="fill:#CCA400;" width="39.619" height="36.977"/>
		<rect x="441.256" y="270.447" style="fill:#CCA400;" width="41.533" height="36.977"/>
		<path style="fill:#CCA400;" d="M482.79,138.076v36.973h-41.533v-32.906C274.659,252.082,106.17,308.86,0,336.433v99.675h29.21
			V402.81h39.619v33.298h372.428V402.81h41.533v33.298H512V91.967c-21.402,16.307-42.99,31.658-64.624,46.109H482.79z
			 M68.829,373.599H29.21v-36.973h39.619V373.599z M482.79,373.599h-41.533v-36.973h41.533V373.599z M482.79,307.416h-41.533
			v-36.973h41.533V307.416z M482.79,241.233h-41.533v-36.974h41.533V241.233z"/>
	</g>
</g>
</svg>
